<svg id="Layer_1" height="512" viewBox="0 0 512 512" width="512" xmlns="http://www.w3.org/2000/svg" data-name="Layer 1">
    <path d="m153.121 39.423a6 6 0 0 0 0 12h77.855a6 6 0 0 0 0-12z" />
    <path d="m279.843 51.423h78.388a6 6 0 0 0 0-12h-78.388a6 6 0 0 0 0 12z" />
    <path
        d="m112 45.423c0 9.706 7.606 17.6 16.955 17.6s16.954-7.9 16.954-17.6-7.6-17.6-16.954-17.6-16.955 7.894-16.955 17.6z" />
    <ellipse cx="382.397" cy="45.423" rx="17.603" ry="16.955" />
    <path
        d="m243.779 224.775a12.253 12.253 0 0 0 12.238 12.161h.079a12.239 12.239 0 0 0 -.078-24.477h-.078a12.253 12.253 0 0 0 -12.161 12.316z" />
    <path
        d="m283.287 285.113-53.642.337a5.991 5.991 0 0 1 -1.416.28l.239 19.464 56.728-.356-.238-19.447a5.942 5.942 0 0 1 -1.671-.278z" />
    <path
        d="m50.312 365.667a23.272 23.272 0 0 0 23.247 23.246h364.882a23.272 23.272 0 0 0 23.247-23.246v-20.7h-411.376z" />
    <path
        d="m273.843 46.929v-19.673h-36.333v20.007c.011.031.025.061.035.092a5.978 5.978 0 0 1 -.035 3.756v12.478h36.333v-12.571a5.967 5.967 0 0 1 -.1-3.829c.031-.089.069-.173.1-.26z" />
    <path
        d="m438.441 104.744h-99.769a85.451 85.451 0 0 1 2.275 19.626 6 6 0 0 1 -12 0 73.523 73.523 0 0 0 -3.71-23.138 6.055 6.055 0 0 1 -.348-.988 72.452 72.452 0 0 0 -39.046-42.473v11.818a6 6 0 0 1 -6 6h-48.333a6 6 0 0 1 -6-6v-11.522a72.622 72.622 0 0 0 -38.445 42.358 5.759 5.759 0 0 1 -.232.662 73.319 73.319 0 0 0 -3.78 23.283 6 6 0 0 1 -12 0 85.658 85.658 0 0 1 2.278-19.626h-99.772a23.272 23.272 0 0 0 -23.247 23.246v204.975h411.376v-204.975a23.272 23.272 0 0 0 -23.247-23.246zm-250.026 60.89a6 6 0 0 1 -8.075-2.607 84.527 84.527 0 0 1 -7.185-19.791 6 6 0 0 1 11.7-2.656 72.556 72.556 0 0 0 6.163 16.979 6 6 0 0 1 -2.603 8.075zm132.975 48.3-27.274 60.081a5.993 5.993 0 0 1 2.765 4.975l.389 31.735a6 6 0 0 1 -5.962 6.073l-68.729.431h-.039a6 6 0 0 1 -6-5.926l-.388-31.735a5.966 5.966 0 0 1 2.56-4.984l-28.07-59.829a6 6 0 0 1 .445-5.887l12.054-18.007a85.475 85.475 0 0 1 -10.969-10.435 6 6 0 0 1 9.014-7.922 73.459 73.459 0 0 0 8.656 8.345l40.558-60.581a6 6 0 0 1 9.927-.067l41.811 60.669c1.755-1.435 3.449-2.946 5.06-4.533a6 6 0 1 1 8.422 8.547 85.223 85.223 0 0 1 -6.66 5.885l11.91 17.282a6 6 0 0 1 .52 5.885zm15.88-64.771a84.621 84.621 0 0 1 -8.6 19.217 6 6 0 0 1 -10.258-6.227 72.543 72.543 0 0 0 7.379-16.488 6 6 0 0 1 11.479 3.5z" />
    <path
        d="m295.8 192.827-34.292-49.759.364 58.114a24.238 24.238 0 0 1 -5.7 47.759h-.154a24.239 24.239 0 0 1 -6.146-47.686l-.364-58.078-46.56 69.557 28.484 60.71 49.912-.314 27.718-61.06-13.262-19.239z" />
    <path d="m351.152 472.744h-45.2v-71.831h-99.9v71.831h-39.941a6 6 0 0 0 0 12h185.041a6 6 0 0 0 0-12z" /></svg>