<svg xmlns="http://www.w3.org/2000/svg" height="700pt" version="1.1" viewBox="0 0 700 700" width="700pt">
<g id="surface1">
<path d="M 225 200 L 0 200 L 0 325 L 225 325 Z M 71.335938 278.664062 L 53.664062 296.335938 L 28.664062 271.335938 C 23.785156 266.453125 23.785156 258.546875 28.664062 253.664062 L 53.664062 228.664062 L 71.335938 246.335938 L 55.175781 262.5 Z M 111.867188 303.949219 L 88.109375 296.050781 L 113.109375 221.050781 L 136.867188 228.949219 Z M 196.335938 271.335938 L 171.335938 296.335938 L 153.664062 278.664062 L 169.824219 262.5 L 153.664062 246.335938 L 171.335938 228.664062 L 196.335938 253.664062 C 201.214844 258.546875 201.214844 266.453125 196.335938 271.335938 Z M 196.335938 271.335938 " style=" stroke:none;fill-rule:nonzero;fill:rgb(0%,0%,0%);fill-opacity:1;" />
<path d="M 487.5 575 L 700 575 L 700 450 L 487.5 450 Z M 562.5 475 L 675 475 L 675 500 L 562.5 500 Z M 562.5 525 L 675 525 L 675 550 L 562.5 550 Z M 512.5 475 L 537.5 475 L 537.5 500 L 512.5 500 Z M 512.5 525 L 537.5 525 L 537.5 550 L 512.5 550 Z M 512.5 525 " style=" stroke:none;fill-rule:nonzero;fill:rgb(0%,0%,0%);fill-opacity:1;" />
<path d="M 462.5 587.5 L 462.5 437.5 C 462.5 430.59375 468.09375 425 475 425 L 625 425 L 625 325 L 287.5 325 C 280.59375 325 275 319.40625 275 312.5 L 275 62.5 C 275 55.59375 280.59375 50 287.5 50 L 625 50 L 625 25 C 624.996094 13.125 616.640625 2.886719 605 0.511719 C 603.359375 0.171875 601.679688 0 600 0 L 100 0 C 86.191406 0 75 11.191406 75 25 L 75 175 L 237.5 175 C 244.40625 175 250 180.59375 250 187.5 L 250 337.5 C 250 344.40625 244.40625 350 237.5 350 L 75 350 L 75 625 L 562.5 625 C 569.40625 625 575 630.59375 575 637.5 L 575 675 C 575 688.808594 586.191406 700 600 700 C 613.808594 700 625 688.808594 625 675 L 625 600 L 475 600 C 468.09375 600 462.5 594.40625 462.5 587.5 Z M 200 25 L 225 25 L 225 50 L 200 50 Z M 150 25 L 175 25 L 175 50 L 150 50 Z M 100 25 L 125 25 L 125 50 L 100 50 Z M 100 100 L 100 75 L 250 75 L 250 100 Z M 437.5 537.5 C 437.5 544.40625 431.90625 550 425 550 L 112.5 550 C 105.59375 550 100 544.40625 100 537.5 L 100 387.5 C 100 380.59375 105.59375 375 112.5 375 L 425 375 C 431.90625 375 437.5 380.59375 437.5 387.5 Z M 437.5 537.5 " style=" stroke:none;fill-rule:nonzero;fill:rgb(0%,0%,0%);fill-opacity:1;" />
<path d="M 550 650 L 0 650 L 0 675 C 0 688.808594 11.191406 700 25 700 L 556.714844 700 C 552.300781 692.40625 549.992188 683.785156 550 675 Z M 550 650 " style=" stroke:none;fill-rule:nonzero;fill:rgb(0%,0%,0%);fill-opacity:1;" />
<path d="M 125 525 L 412.5 525 L 412.5 400 L 125 400 Z M 387.5 500 L 325 500 L 325 475 L 387.5 475 Z M 362.5 425 L 387.5 425 L 387.5 450 L 362.5 450 Z M 225 425 L 337.5 425 L 337.5 450 L 225 450 Z M 150 425 L 200 425 L 200 450 L 150 450 Z M 150 475 L 300 475 L 300 500 L 150 500 Z M 150 475 " style=" stroke:none;fill-rule:nonzero;fill:rgb(0%,0%,0%);fill-opacity:1;" />
<path d="M 587.5 143.75 C 587.5 154.105469 579.105469 162.5 568.75 162.5 C 558.394531 162.5 550 154.105469 550 143.75 C 550 133.394531 558.394531 125 568.75 125 C 579.105469 125 587.5 133.394531 587.5 143.75 Z M 587.5 143.75 " style=" stroke:none;fill-rule:nonzero;fill:rgb(0%,0%,0%);fill-opacity:1;" />
<path d="M 534.222656 273.601562 C 530.25 275.65625 525.484375 275.421875 521.722656 273 L 412.25 202.226562 L 300 269.574219 L 300 300 L 700 300 L 700 269.75 L 624.710938 226.726562 Z M 534.222656 273.601562 " style=" stroke:none;fill-rule:nonzero;fill:rgb(0%,0%,0%);fill-opacity:1;" />
<path d="M 300 75 L 300 240.425781 L 406.058594 176.789062 C 410.152344 174.328125 415.28125 174.414062 419.289062 177 L 529.160156 248.066406 L 619.25 201.398438 C 623.015625 199.453125 627.515625 199.539062 631.203125 201.648438 L 700 240.960938 L 700 75 Z M 568.75 187.5 C 544.585938 187.5 525 167.914062 525 143.75 C 525 119.585938 544.585938 100 568.75 100 C 592.914062 100 612.5 119.585938 612.5 143.75 C 612.5 167.914062 592.914062 187.5 568.75 187.5 Z M 568.75 187.5 " style=" stroke:none;fill-rule:nonzero;fill:rgb(0%,0%,0%);fill-opacity:1;" />
</g>
</svg>